<?xml version="1.0" encoding="UTF-8" standalone="no"?>
<!-- Created with Inkscape (http://www.inkscape.org/) -->

<svg
   xmlns:dc="http://purl.org/dc/elements/1.1/"
   xmlns:cc="http://creativecommons.org/ns#"
   xmlns:rdf="http://www.w3.org/1999/02/22-rdf-syntax-ns#"
   xmlns:svg="http://www.w3.org/2000/svg"
   xmlns="http://www.w3.org/2000/svg"
   xmlns:sodipodi="http://sodipodi.sourceforge.net/DTD/sodipodi-0.dtd"
   xmlns:inkscape="http://www.inkscape.org/namespaces/inkscape"
   width="400"
   height="180"
   viewBox="0 0 105.83333 47.625001"
   version="1.1"
   id="svg8"
   inkscape:version="0.92.4 5da689c313, 2019-01-14"
   sodipodi:docname="logo.svg">
  <defs
     id="defs2">
    <inkscape:path-effect
       effect="bspline"
       id="path-effect4675"
       is_visible="true"
       weight="33.333333"
       steps="2"
       helper_size="0"
       apply_no_weight="true"
       apply_with_weight="true"
       only_selected="false" />
    <inkscape:path-effect
       effect="bspline"
       id="path-effect4671"
       is_visible="true"
       weight="33.333333"
       steps="2"
       helper_size="0"
       apply_no_weight="true"
       apply_with_weight="true"
       only_selected="false" />
    <inkscape:path-effect
       effect="bspline"
       id="path-effect4606"
       is_visible="true"
       weight="33.333333"
       steps="2"
       helper_size="0"
       apply_no_weight="true"
       apply_with_weight="true"
       only_selected="false" />
    <inkscape:path-effect
       effect="bspline"
       id="path-effect4601"
       is_visible="true"
       weight="33.333333"
       steps="2"
       helper_size="0"
       apply_no_weight="true"
       apply_with_weight="true"
       only_selected="false" />
    <inkscape:path-effect
       effect="bspline"
       id="path-effect4547"
       is_visible="true"
       weight="33.333333"
       steps="2"
       helper_size="0"
       apply_no_weight="true"
       apply_with_weight="true"
       only_selected="false" />
    <inkscape:path-effect
       effect="bspline"
       id="path-effect4539"
       is_visible="true"
       weight="33.333333"
       steps="2"
       helper_size="0"
       apply_no_weight="true"
       apply_with_weight="true"
       only_selected="false" />
    <inkscape:path-effect
       effect="bspline"
       id="path-effect4606-8"
       is_visible="true"
       weight="33.333333"
       steps="2"
       helper_size="0"
       apply_no_weight="true"
       apply_with_weight="true"
       only_selected="false" />
    <inkscape:path-effect
       effect="bspline"
       id="path-effect4606-87"
       is_visible="true"
       weight="33.333333"
       steps="2"
       helper_size="0"
       apply_no_weight="true"
       apply_with_weight="true"
       only_selected="false" />
  </defs>
  <sodipodi:namedview
     id="base"
     pagecolor="#ffffff"
     bordercolor="#666666"
     borderopacity="1.0"
     inkscape:pageopacity="0.0"
     inkscape:pageshadow="2"
     inkscape:zoom="2.8284271"
     inkscape:cx="201.6152"
     inkscape:cy="169.29336"
     inkscape:document-units="mm"
     inkscape:current-layer="layer1"
     showgrid="false"
     units="px"
     inkscape:window-width="2560"
     inkscape:window-height="1386"
     inkscape:window-x="1920"
     inkscape:window-y="0"
     inkscape:window-maximized="1" />
  <metadata
     id="metadata5">
    <rdf:RDF>
      <cc:Work
         rdf:about="">
        <dc:format>image/svg+xml</dc:format>
        <dc:type
           rdf:resource="http://purl.org/dc/dcmitype/StillImage" />
        <dc:title></dc:title>
      </cc:Work>
    </rdf:RDF>
  </metadata>
  <g
     inkscape:label="Layer 1"
     inkscape:groupmode="layer"
     id="layer1"
     transform="translate(0,-249.37498)">
    <g
       id="g4701"
       transform="translate(3.648229)"
       style="stroke:#ffffff;stroke-opacity:1">
      <path
         sodipodi:nodetypes="csc"
         inkscape:connector-curvature="0"
         id="path4557"
         d="m 25.33278,283.35142 c 2e-6,5.24668 -4.25327,9.49995 -9.499947,9.49995 -5.246678,0 -9.4999497,-4.25327 -9.4999478,-9.49995"
         style="opacity:1;vector-effect:none;fill:none;fill-opacity:1;stroke:#ffffff;stroke-width:1.00010753;stroke-linecap:round;stroke-miterlimit:4;stroke-dasharray:none;stroke-opacity:1" />
      <path
         transform="matrix(1.051417,0,0,0.99957812,4.1497638,1.0284387)"
         inkscape:original-d="m 1.6253328,252.6015 c 6.1741906,-2.6e-4 18.5217782,0 18.5217782,0 0,0 0,29.84064 0,29.84064"
         inkscape:path-effect="#path-effect4601"
         inkscape:connector-curvature="0"
         id="path4599"
         d="m 1.6253328,252.6015 c 6.1741906,0 12.3478522,0 18.5217782,0 0,0 0,29.84064 0,29.84064"
         style="fill:none;stroke:#ffffff;stroke-width:1;stroke-linecap:round;stroke-linejoin:miter;stroke-miterlimit:4;stroke-dasharray:none;stroke-opacity:1" />
      <path
         transform="translate(4.2333335,0.9092808)"
         inkscape:original-d="m 3.063577,257.99199 c 2.646e-4,5.58901 0,16.74444 0,16.74444"
         inkscape:path-effect="#path-effect4606"
         inkscape:connector-curvature="0"
         id="path4604"
         d="m 3.063577,257.99199 c 0,5.58901 0,11.16296 0,16.74444"
         style="opacity:1;vector-effect:none;fill:none;fill-opacity:1;stroke:#ffffff;stroke-width:1;stroke-linecap:round;stroke-linejoin:miter;stroke-miterlimit:4;stroke-dasharray:none;stroke-dashoffset:0;stroke-opacity:1" />
      <path
         inkscape:original-d="m 3.063577,257.99199 c 2.646e-4,5.58901 0,16.74444 0,16.74444"
         inkscape:path-effect="#path-effect4606-87"
         inkscape:connector-curvature="0"
         id="path4604-9"
         d="m 3.063577,257.99199 c 0,5.58901 0,11.16296 0,16.74444"
         style="opacity:1;vector-effect:none;fill:none;fill-opacity:1;stroke:#ffffff;stroke-width:1;stroke-linecap:round;stroke-linejoin:miter;stroke-miterlimit:4;stroke-dasharray:none;stroke-dashoffset:0;stroke-opacity:1"
         transform="translate(11.641383,0.9088308)" />
      <path
         transform="translate(4.2333335,0.9092808)"
         inkscape:original-d="M 3.1088541,266.82094 H 10.467578"
         inkscape:path-effect="#path-effect4671"
         inkscape:connector-curvature="0"
         id="path4669"
         d="m 3.1088541,266.82094 c 0,0 7.3587239,0 7.3587239,0"
         style="fill:none;stroke:#ffffff;stroke-width:1;stroke-linecap:round;stroke-linejoin:miter;stroke-miterlimit:4;stroke-dasharray:none;stroke-opacity:1" />
      <path
         transform="translate(4.2333335,0.9092808)"
         sodipodi:nodetypes="cccccc"
         inkscape:original-d="m 17.636132,263.67901 c -0.608826,-0.36406 -1.217812,-0.7278 -1.827278,-1.0914 -0.898782,0.45882 -1.797266,0.91763 -2.696659,1.37703 0.02272,1.47037 0.04517,2.94009 0.06736,4.41073 0.9953,0.20922 1.990152,0.41866 2.984831,0.62838 0.485023,-0.38611 0.969778,-0.77196 1.454276,-1.15755"
         inkscape:path-effect="#path-effect4675"
         inkscape:connector-curvature="0"
         id="path4673"
         d="m 17.636132,263.67901 c -0.609011,-0.36375 -1.217998,-0.72749 -1.972001,-0.67998 -0.754004,0.0475 -1.65249,0.50631 -2.090985,1.47115 -0.438496,0.96483 -0.41605,2.43455 0.0928,3.27463 0.508847,0.84008 1.503699,1.04952 2.243594,0.96119 0.739895,-0.0883 1.224652,-0.47418 1.709124,-0.8598"
         style="fill:none;stroke:#ffffff;stroke-width:1;stroke-linecap:round;stroke-linejoin:miter;stroke-miterlimit:4;stroke-dasharray:none;stroke-opacity:1" />
    </g>
    <g
       aria-label="Janacek-
Multhaupt"
       transform="matrix(0.26458333,0,0,0.26458333,15.03861,247.86344)"
       style="font-style:normal;font-weight:normal;font-size:40px;line-height:1.25;font-family:sans-serif;text-align:center;letter-spacing:0px;word-spacing:0px;text-anchor:middle;fill:#000000;fill-opacity:1;stroke:none"
       id="flowRoot4677">
      <path
         d="m 130.60742,52.587891 h 3.94531 v 27.128906 q 0,5.273437 -2.01171,7.65625 -1.99219,2.382812 -6.42579,2.382812 h -1.5039 v -3.320312 h 1.23047 q 2.61718,0 3.6914,-1.464844 1.07422,-1.464844 1.07422,-5.253906 z"
         style="fill:#ffffff;fill-opacity:1"
         id="path4722" />
      <path
         d="m 152.18945,70.751953 q -4.35547,0 -6.03515,0.996094 -1.67969,0.996094 -1.67969,3.398437 0,1.914063 1.25,3.046875 1.26953,1.113282 3.4375,1.113282 2.98828,0 4.78516,-2.109375 1.8164,-2.128907 1.8164,-5.644532 v -0.800781 z m 7.16797,-1.484375 v 12.480469 h -3.59375 v -3.320313 q -1.23047,1.992188 -3.0664,2.949219 -1.83594,0.9375 -4.49219,0.9375 -3.35938,0 -5.35156,-1.875 -1.97266,-1.894531 -1.97266,-5.058594 0,-3.691406 2.46094,-5.566406 2.48047,-1.875 7.38281,-1.875 h 5.03906 v -0.351562 q 0,-2.480469 -1.64062,-3.828125 -1.6211,-1.367188 -4.57032,-1.367188 -1.875,0 -3.65234,0.449219 -1.77734,0.449219 -3.41797,1.347656 v -3.320312 q 1.97266,-0.761719 3.82813,-1.132813 1.85547,-0.390625 3.61328,-0.390625 4.74609,0 7.08984,2.460938 2.34375,2.460937 2.34375,7.460937 z"
         style="fill:#ffffff;fill-opacity:1"
         id="path4724" />
      <path
         d="m 184.96289,68.544922 v 13.203125 h -3.59375 V 68.662109 q 0,-3.105468 -1.21094,-4.648437 -1.21093,-1.542969 -3.63281,-1.542969 -2.91016,0 -4.58984,1.855469 -1.67969,1.855469 -1.67969,5.058594 v 12.363281 h -3.61328 v -21.875 h 3.61328 v 3.398437 q 1.28906,-1.972656 3.02734,-2.949218 1.75782,-0.976563 4.04297,-0.976563 3.76953,0 5.70313,2.34375 1.93359,2.324219 1.93359,6.855469 z"
         style="fill:#ffffff;fill-opacity:1"
         id="path4726" />
      <path
         d="m 202.11133,70.751953 q -4.35547,0 -6.03516,0.996094 -1.67969,0.996094 -1.67969,3.398437 0,1.914063 1.25,3.046875 1.26954,1.113282 3.4375,1.113282 2.98829,0 4.78516,-2.109375 1.81641,-2.128907 1.81641,-5.644532 v -0.800781 z m 7.16797,-1.484375 v 12.480469 h -3.59375 v -3.320313 q -1.23047,1.992188 -3.06641,2.949219 -1.83594,0.9375 -4.49219,0.9375 -3.35937,0 -5.35156,-1.875 -1.97266,-1.894531 -1.97266,-5.058594 0,-3.691406 2.46094,-5.566406 2.48047,-1.875 7.38281,-1.875 h 5.03907 v -0.351562 q 0,-2.480469 -1.64063,-3.828125 -1.62109,-1.367188 -4.57031,-1.367188 -1.875,0 -3.65234,0.449219 -1.77735,0.449219 -3.41797,1.347656 v -3.320312 q 1.97265,-0.761719 3.82812,-1.132813 1.85547,-0.390625 3.61328,-0.390625 4.7461,0 7.08985,2.460938 2.34375,2.460937 2.34375,7.460937 z"
         style="fill:#ffffff;fill-opacity:1"
         id="path4728" />
      <path
         d="m 232.44336,60.712891 v 3.359375 q -1.52344,-0.839844 -3.06641,-1.25 -1.52343,-0.429688 -3.08593,-0.429688 -3.4961,0 -5.42969,2.226563 -1.9336,2.207031 -1.9336,6.210937 0,4.003906 1.9336,6.230469 1.93359,2.207031 5.42969,2.207031 1.5625,0 3.08593,-0.410156 1.54297,-0.429688 3.06641,-1.269531 v 3.320312 q -1.50391,0.703125 -3.125,1.054688 -1.60156,0.351562 -3.41797,0.351562 -4.94141,0 -7.85156,-3.105469 -2.91016,-3.105468 -2.91016,-8.378906 0,-5.351562 2.92969,-8.417969 2.94922,-3.066406 8.06641,-3.066406 1.66015,0 3.24218,0.351563 1.58203,0.332031 3.06641,1.015625 z"
         style="fill:#ffffff;fill-opacity:1"
         id="path4730" />
      <path
         d="m 257.44336,69.912109 v 1.757813 h -16.52344 q 0.23438,3.710937 2.22656,5.664062 2.01172,1.933594 5.58594,1.933594 2.07031,0 4.00391,-0.507812 1.95312,-0.507813 3.86719,-1.523438 v 3.398438 q -1.9336,0.820312 -3.96485,1.25 -2.03125,0.429687 -4.12109,0.429687 -5.23438,0 -8.30078,-3.046875 -3.04688,-3.046875 -3.04688,-8.242187 0,-5.371094 2.89063,-8.515625 2.91015,-3.164063 7.83203,-3.164063 4.41406,0 6.97265,2.851563 2.57813,2.832031 2.57813,7.714843 z m -3.59375,-1.054687 q -0.0391,-2.949219 -1.66016,-4.707031 -1.60156,-1.757813 -4.25781,-1.757813 -3.00781,0 -4.82422,1.699219 -1.79687,1.699219 -2.07031,4.785156 z"
         style="fill:#ffffff;fill-opacity:1"
         id="path4732" />
      <path
         d="m 263.20508,51.357422 h 3.61328 v 17.949219 l 10.72266,-9.433594 h 4.58984 l -11.60156,10.234375 12.08984,11.640625 h -4.6875 L 266.81836,71.064453 v 10.683594 h -3.61328 z"
         style="fill:#ffffff;fill-opacity:1"
         id="path4734" />
      <path
         d="m 284.72852,69.189453 h 10.52734 v 3.203125 h -10.52734 z"
         style="fill:#ffffff;fill-opacity:1"
         id="path4736" />
      <path
         d="m 114.31836,102.58789 h 5.87891 l 7.4414,19.84375 7.48047,-19.84375 h 5.87891 v 29.16016 h -3.84766 v -25.60547 l -7.51953,20 h -3.96484 l -7.51954,-20 v 25.60547 h -3.82812 z"
         style="fill:#ffffff;fill-opacity:1"
         id="path4738" />
      <path
         d="m 148.32227,123.11523 v -13.24218 h 3.59375 v 13.10547 q 0,3.10546 1.21093,4.66796 1.21094,1.54297 3.63282,1.54297 2.91015,0 4.58984,-1.85547 1.69922,-1.85546 1.69922,-5.05859 v -12.40234 h 3.59375 v 21.875 h -3.59375 v -3.35938 q -1.3086,1.99219 -3.04688,2.96875 -1.71875,0.95703 -4.0039,0.95703 -3.76953,0 -5.72266,-2.34375 -1.95312,-2.34375 -1.95312,-6.85547 z m 9.04296,-13.76953 z"
         style="fill:#ffffff;fill-opacity:1"
         id="path4740" />
      <path
         d="m 174.08398,101.35742 h 3.59375 v 30.39063 h -3.59375 z"
         style="fill:#ffffff;fill-opacity:1"
         id="path4742" />
      <path
         d="m 188.73242,103.66211 v 6.21094 h 7.40235 v 2.79297 h -7.40235 v 11.875 q 0,2.67578 0.72266,3.4375 0.74219,0.76171 2.98828,0.76171 h 3.69141 v 3.00782 h -3.69141 q -4.16016,0 -5.74219,-1.54297 -1.58203,-1.5625 -1.58203,-5.66406 v -11.875 h -2.63672 v -2.79297 h 2.63672 v -6.21094 z"
         style="fill:#ffffff;fill-opacity:1"
         id="path4744" />
      <path
         d="m 219.06445,118.54492 v 13.20313 h -3.59375 v -13.08594 q 0,-3.10547 -1.21093,-4.64844 -1.21094,-1.54297 -3.63282,-1.54297 -2.91015,0 -4.58984,1.85547 -1.67969,1.85547 -1.67969,5.0586 v 12.36328 h -3.61328 v -30.39063 h 3.61328 v 11.91406 q 1.28906,-1.97265 3.02735,-2.94921 1.75781,-0.97657 4.04296,-0.97657 3.76954,0 5.70313,2.34375 1.93359,2.32422 1.93359,6.85547 z"
         style="fill:#ffffff;fill-opacity:1"
         id="path4746" />
      <path
         d="m 236.21289,120.75195 q -4.35547,0 -6.03516,0.9961 -1.67968,0.99609 -1.67968,3.39843 0,1.91407 1.25,3.04688 1.26953,1.11328 3.4375,1.11328 2.98828,0 4.78515,-2.10937 1.81641,-2.12891 1.81641,-5.64454 v -0.80078 z m 7.16797,-1.48437 v 12.48047 h -3.59375 v -3.32032 q -1.23047,1.99219 -3.06641,2.94922 -1.83593,0.9375 -4.49218,0.9375 -3.35938,0 -5.35157,-1.875 -1.97265,-1.89453 -1.97265,-5.05859 0,-3.69141 2.46093,-5.56641 2.48047,-1.875 7.38282,-1.875 h 5.03906 v -0.35156 q 0,-2.48047 -1.64063,-3.82812 -1.62109,-1.36719 -4.57031,-1.36719 -1.875,0 -3.65234,0.44922 -1.77735,0.44922 -3.41797,1.34765 v -3.32031 q 1.97266,-0.76172 3.82812,-1.13281 1.85547,-0.39063 3.61329,-0.39063 4.74609,0 7.08984,2.46094 2.34375,2.46094 2.34375,7.46094 z"
         style="fill:#ffffff;fill-opacity:1"
         id="path4748" />
      <path
         d="m 250.43164,123.11523 v -13.24218 h 3.59375 v 13.10547 q 0,3.10546 1.21094,4.66796 1.21094,1.54297 3.63281,1.54297 2.91016,0 4.58984,-1.85547 1.69922,-1.85546 1.69922,-5.05859 v -12.40234 h 3.59375 v 21.875 h -3.59375 v -3.35938 q -1.30859,1.99219 -3.04687,2.96875 -1.71875,0.95703 -4.00391,0.95703 -3.76953,0 -5.72265,-2.34375 -1.95313,-2.34375 -1.95313,-6.85547 z m 9.04297,-13.76953 z"
         style="fill:#ffffff;fill-opacity:1"
         id="path4750" />
      <path
         d="m 279.66992,128.4668 v 11.60156 h -3.61328 v -30.19531 h 3.61328 v 3.32031 q 1.13281,-1.95313 2.85156,-2.89063 1.73829,-0.95703 4.14063,-0.95703 3.98437,0 6.46484,3.16407 2.5,3.16406 2.5,8.32031 0,5.15625 -2.5,8.32031 -2.48047,3.16406 -6.46484,3.16406 -2.40234,0 -4.14063,-0.9375 -1.71875,-0.95703 -2.85156,-2.91015 z m 12.22656,-7.63672 q 0,-3.96485 -1.64062,-6.21094 -1.62109,-2.26562 -4.47266,-2.26562 -2.85156,0 -4.49218,2.26562 -1.6211,2.24609 -1.6211,6.21094 0,3.96484 1.6211,6.23047 1.64062,2.24609 4.49218,2.24609 2.85157,0 4.47266,-2.24609 1.64062,-2.26563 1.64062,-6.23047 z"
         style="fill:#ffffff;fill-opacity:1"
         id="path4752" />
      <path
         d="m 305.13867,103.66211 v 6.21094 h 7.40235 v 2.79297 h -7.40235 v 11.875 q 0,2.67578 0.72266,3.4375 0.74219,0.76171 2.98828,0.76171 h 3.69141 v 3.00782 h -3.69141 q -4.16016,0 -5.74219,-1.54297 -1.58203,-1.5625 -1.58203,-5.66406 v -11.875 h -2.63672 v -2.79297 h 2.63672 v -6.21094 z"
         style="fill:#ffffff;fill-opacity:1"
         id="path4754" />
    </g>
  </g>
</svg>
